<svg width="78" height="297" viewBox="0 0 78 297" fill="none" xmlns="http://www.w3.org/2000/svg">
<rect width="78" height="297" fill="white"/>
<path fill-rule="evenodd" clip-rule="evenodd" d="M0 241.676C42.7608 178.745 51.029 124.015 41.3762 79.2385C34.5458 47.5538 18.7592 20.9392 0 0V3.01642C17.9008 23.4684 32.8561 49.2063 39.4212 79.66C48.8085 123.205 41.075 176.56 0 238.098V241.676Z" fill="#FBBCA2" fill-opacity="0.4"/>
<path fill-rule="evenodd" clip-rule="evenodd" d="M0 230.69C28.7273 178.591 33.6754 132.736 25.3762 94.2385C20.6061 72.1113 11.4681 52.4567 0 35.481V39.0995C10.5593 55.3044 18.9425 73.8849 23.4212 94.66C31.4289 131.806 26.9782 176.09 0 226.503V230.69Z" fill="#FBBCA2"/>
</svg>
