<svg width="72" height="297" viewBox="0 0 72 297" fill="none" xmlns="http://www.w3.org/2000/svg">
<g clip-path="url(#clip0_9_319)">
<rect width="72" height="297" fill="white"/>
<path fill-rule="evenodd" clip-rule="evenodd" d="M72.0007 52.9777C54.9723 72.8031 40.801 97.6032 34.5038 126.87C25.3633 169.351 32.8461 221.078 72.0007 280.456V276.801C34.5413 218.856 27.5862 168.528 36.4591 127.29C42.4884 99.2685 55.8411 75.3702 72.0007 56.0698V52.9777Z" fill="#FBBCA2"/>
<path fill-rule="evenodd" clip-rule="evenodd" d="M72.0007 0C42.7029 21.9618 13.3932 56.9079 3.50385 102.87C-7.67014 154.802 5.99817 220.55 72.0007 297.203V294.13C7.596 218.576 -5.46208 154.047 5.4591 103.29C15.09 58.53 43.4063 24.291 72.0007 2.50592V0Z" fill="#FBBCA2" fill-opacity="0.3"/>
</g>
<defs>
<clipPath id="clip0_9_319">
<rect width="72" height="297" fill="white"/>
</clipPath>
</defs>
</svg>
