<svg width="175" height="48" viewBox="0 0 175 48" fill="none" xmlns="http://www.w3.org/2000/svg">
<path d="M89.5 0L90.7348 4.1459H94.7308L91.498 6.7082L92.7328 10.8541L89.5 8.2918L86.2672 10.8541L87.502 6.7082L84.2692 4.1459H88.2652L89.5 0Z" fill="#FBBCA2"/>
<path d="M106 4L107.123 7.10942H110.755L107.816 9.03115L108.939 12.1406L106 10.2188L103.061 12.1406L104.184 9.03115L101.245 7.10942H104.877L106 4Z" fill="#FBBCA2" fill-opacity="0.8"/>
<path d="M118 8L118.898 10.7639H121.804L119.453 12.4721L120.351 15.2361L118 13.5279L115.649 15.2361L116.547 12.4721L114.196 10.7639H117.102L118 8Z" fill="#FBBCA2" fill-opacity="0.5"/>
<path d="M58.5 8L59.2858 10.7639H61.8287L59.7714 12.4721L60.5572 15.2361L58.5 13.5279L56.4428 15.2361L57.2286 12.4721L55.1713 10.7639H57.7142L58.5 8Z" fill="#FBBCA2" fill-opacity="0.5"/>
<path d="M73.5 4L74.5103 7.10942H77.7798L75.1347 9.03115L76.145 12.1406L73.5 10.2188L70.855 12.1406L71.8653 9.03115L69.2202 7.10942H72.4897L73.5 4Z" fill="#FBBCA2" fill-opacity="0.8"/>
<path d="M1.7875 39H-0.2125V41H1.7875V39ZM1.7875 23.925V21.925H-0.2125V23.925H1.7875ZM6.0175 27.7275V25.7275H4.0175V27.7275H6.0175ZM6.0175 35.1975H4.0175V37.1975H6.0175V35.1975ZM8.29 37H1.7875V41H8.29V37ZM3.7875 39V23.925H-0.2125V39H3.7875ZM1.7875 25.925H8.29V21.925H1.7875V25.925ZM8.29 25.925C10.3998 25.925 11.751 26.509 12.5744 27.3253C13.3959 28.1397 13.9625 29.453 13.9625 31.4625H17.9625C17.9625 28.702 17.1679 26.2466 15.3906 24.4847C13.6153 22.7248 11.1302 21.925 8.29 21.925V25.925ZM13.9625 31.4625C13.9625 33.472 13.3959 34.7853 12.5744 35.5997C11.751 36.416 10.3998 37 8.29 37V41C11.1302 41 13.6153 40.2002 15.3906 38.4403C17.1679 36.6784 17.9625 34.223 17.9625 31.4625H13.9625ZM8.065 25.7275H6.0175V29.7275H8.065V25.7275ZM4.0175 27.7275V35.1975H8.0175V27.7275H4.0175ZM6.0175 37.1975H8.065V33.1975H6.0175V37.1975ZM8.065 37.1975C9.3181 37.1975 11.0283 37.1284 12.1888 35.8832C12.7707 35.2588 13.0556 34.5088 13.2054 33.7955C13.3525 33.0951 13.395 32.3034 13.395 31.4625H9.395C9.395 32.2079 9.35317 32.6762 9.29074 32.9734C9.231 33.2579 9.18115 33.2434 9.2625 33.1561C9.35744 33.0543 9.42274 33.0721 9.24915 33.1128C9.04161 33.1614 8.68706 33.1975 8.065 33.1975V37.1975ZM13.395 31.4625C13.395 30.6216 13.3525 29.8299 13.2054 29.1295C13.0556 28.4162 12.7707 27.6662 12.1888 27.0418C11.0283 25.7966 9.31811 25.7275 8.065 25.7275V29.7275C8.68706 29.7275 9.0416 29.7636 9.24915 29.8122C9.42274 29.8529 9.35744 29.8707 9.2625 29.7689C9.18115 29.6816 9.231 29.6671 9.29074 29.9516C9.35317 30.2488 9.395 30.7171 9.395 31.4625H13.395ZM23.0853 39V41H25.0853V39H23.0853ZM18.8778 39H16.8778V41H18.8778V39ZM18.8778 27.435V25.435H16.8778V27.435H18.8778ZM22.8153 27.435H24.8153V25.435H22.8153V27.435ZM22.8153 29.19H20.8153V31.19H22.8153V29.19ZM23.0178 29.19V31.19H24.1699L24.7479 30.1934L23.0178 29.19ZM29.3178 33.015V35.015H31.3178V33.015H29.3178ZM25.0878 33.015H23.0878V35.015H25.0878V33.015ZM23.0853 37H18.8778V41H23.0853V37ZM20.8778 39V27.435H16.8778V39H20.8778ZM18.8778 29.435H22.8153V25.435H18.8778V29.435ZM20.8153 27.435V29.19H24.8153V27.435H20.8153ZM22.8153 31.19H23.0178V27.19H22.8153V31.19ZM24.7479 30.1934C25.1249 29.5434 25.636 29.21 26.3028 29.21V25.21C23.9096 25.21 22.2158 26.5866 21.2878 28.1866L24.7479 30.1934ZM26.3028 29.21C26.6479 29.21 26.8284 29.266 26.9074 29.3008C26.972 29.3293 27.0037 29.3573 27.0364 29.4017C27.1368 29.5376 27.3178 29.9505 27.3178 30.9225H31.3178C31.3178 29.622 31.1051 28.1786 30.2549 27.0265C29.3142 25.7518 27.8864 25.21 26.3028 25.21V29.21ZM27.3178 30.9225V33.015H31.3178V30.9225H27.3178ZM29.3178 31.015H25.0878V35.015H29.3178V31.015ZM27.0878 33.015V31.8675H23.0878V33.015H27.0878ZM27.0878 31.8675C27.0878 31.6134 27.078 31.2909 27.0162 30.9636C26.9531 30.6291 26.8133 30.1635 26.4597 29.7306C25.6955 28.7947 24.5893 28.765 24.1428 28.765V32.765C24.2604 32.765 24.2013 32.7774 24.0633 32.7372C23.8851 32.6853 23.5994 32.5519 23.3616 32.2607C23.1458 31.9965 23.0946 31.7531 23.0856 31.7054C23.078 31.6651 23.0878 31.6941 23.0878 31.8675H27.0878ZM24.1428 28.765C23.9463 28.765 23.6602 28.7696 23.3622 28.818C23.0582 28.8675 22.6182 28.9808 22.19 29.2866C21.2046 29.9905 21.0853 31.0764 21.0853 31.6875H25.0853C25.0853 31.6025 25.0974 31.692 25.0368 31.8625C24.9617 32.0736 24.799 32.3387 24.515 32.5415C24.2641 32.7208 24.0448 32.7596 24.0045 32.7661C23.9702 32.7717 23.9906 32.765 24.1428 32.765V28.765ZM21.0853 31.6875V39H25.0853V31.6875H21.0853ZM35.9376 26.4V28.4H37.9376V26.4H35.9376ZM31.7301 26.4H29.7301V28.4H31.7301V26.4ZM31.7301 23.925V21.925H29.7301V23.925H31.7301ZM35.9376 23.925H37.9376V21.925H35.9376V23.925ZM35.9601 39V41H37.9601V39H35.9601ZM31.7301 39H29.7301V41H31.7301V39ZM31.7301 27.435V25.435H29.7301V27.435H31.7301ZM35.9601 27.435H37.9601V25.435H35.9601V27.435ZM35.9376 24.4H31.7301V28.4H35.9376V24.4ZM33.7301 26.4V23.925H29.7301V26.4H33.7301ZM31.7301 25.925H35.9376V21.925H31.7301V25.925ZM33.9376 23.925V26.4H37.9376V23.925H33.9376ZM35.9601 37H31.7301V41H35.9601V37ZM33.7301 39V27.435H29.7301V39H33.7301ZM31.7301 29.435H35.9601V25.435H31.7301V29.435ZM33.9601 27.435V39H37.9601V27.435H33.9601ZM43.0486 39V41H45.0486V39H43.0486ZM39.1111 39H37.1111V41H39.1111V39ZM39.1111 23.925V21.925H37.1111V23.925H39.1111ZM43.3186 23.925H45.3186V21.925H43.3186V23.925ZM43.3186 28.965H41.3186V30.965H43.3186V28.965ZM43.5211 28.965V30.965H44.7932L45.3325 29.8129L43.5211 28.965ZM43.1836 37.425L44.9112 36.4173L44.3324 35.425H43.1836V37.425ZM43.0486 37.425V35.425H41.0486V37.425H43.0486ZM43.0486 37H39.1111V41H43.0486V37ZM41.1111 39V23.925H37.1111V39H41.1111ZM39.1111 25.925H43.3186V21.925H39.1111V25.925ZM41.3186 23.925V28.965H45.3186V23.925H41.3186ZM43.3186 30.965H43.5211V26.965H43.3186V30.965ZM45.3325 29.8129C45.3976 29.6739 45.5044 29.5459 45.6969 29.4388C45.8998 29.326 46.2501 29.21 46.8061 29.21V25.21C44.5598 25.21 42.6091 26.1957 41.7098 28.1171L45.3325 29.8129ZM46.8061 29.21C47.7569 29.21 48.3058 29.543 48.6803 30.0441C49.1149 30.6256 49.4636 31.6496 49.4636 33.2175H53.4636C53.4636 31.1404 53.0136 29.1606 51.8844 27.6496C50.6952 26.0582 48.9153 25.21 46.8061 25.21V29.21ZM49.4636 33.2175C49.4636 34.7733 49.1088 35.8058 48.6706 36.3964C48.2867 36.9138 47.7513 37.225 46.8961 37.225V41.225C48.966 41.225 50.7143 40.355 51.883 38.7798C52.9973 37.2779 53.4636 35.3067 53.4636 33.2175H49.4636ZM46.8961 37.225C45.5842 37.225 45.1106 36.7592 44.9112 36.4173L41.4561 38.4327C42.5166 40.2508 44.4731 41.225 46.8961 41.225V37.225ZM43.1836 35.425H43.0486V39.425H43.1836V35.425ZM41.0486 37.425V39H45.0486V37.425H41.0486ZM41.3186 33.6225C41.3186 34.585 41.4893 35.828 42.4947 36.6935C43.4213 37.4912 44.5944 37.535 45.2761 37.535V33.535C45.1477 33.535 45.049 33.5311 44.973 33.5249C44.8966 33.5187 44.8567 33.5112 44.8432 33.5082C44.8304 33.5054 44.8561 33.5098 44.9054 33.5324C44.9574 33.5562 45.029 33.5971 45.1044 33.6621C45.1413 33.6938 45.1756 33.7284 45.2068 33.7648C45.2379 33.8012 45.2635 33.837 45.2843 33.8701C45.3259 33.9368 45.3423 33.9846 45.346 33.9962C45.3491 34.0061 45.3414 33.9848 45.3334 33.9197C45.3254 33.8548 45.3186 33.7584 45.3186 33.6225H41.3186ZM45.2761 37.535C46.3577 37.535 47.7011 37.31 48.5509 36.122C49.2512 35.143 49.2561 33.9159 49.2561 33.2175H45.2561C45.2561 33.3897 45.2529 33.531 45.2462 33.65C45.2395 33.7694 45.23 33.8508 45.221 33.9046C45.2013 34.022 45.1955 33.9375 45.2976 33.7948C45.3512 33.7199 45.4192 33.6507 45.4953 33.5952C45.5691 33.5414 45.6281 33.5167 45.6513 33.5084C45.6719 33.501 45.6577 33.5088 45.5925 33.5178C45.5273 33.5267 45.4252 33.535 45.2761 33.535V37.535ZM49.2561 33.2175C49.2561 32.806 49.2444 32.3357 49.1716 31.8808C49.0981 31.4217 48.9444 30.8532 48.5728 30.3208C47.7293 29.112 46.3761 28.8775 45.2761 28.8775V32.8775C45.4269 32.8775 45.5296 32.886 45.5945 32.8951C45.6594 32.9042 45.6724 32.9119 45.6501 32.9037C45.625 32.8946 45.5644 32.8686 45.4896 32.8129C45.4125 32.7555 45.345 32.6849 45.2926 32.6099C45.1939 32.4684 45.2018 32.3879 45.2219 32.513C45.231 32.5701 45.2403 32.6546 45.2468 32.777C45.2532 32.899 45.2561 33.0428 45.2561 33.2175H49.2561ZM45.2761 28.8775C44.5743 28.8775 43.4086 28.9327 42.4872 29.7339C41.4937 30.5978 41.3186 31.8285 41.3186 32.79H45.3186C45.3186 32.6579 45.3253 32.5643 45.3331 32.5015C45.3409 32.4387 45.3484 32.4182 45.3453 32.4281C45.3416 32.4396 45.3256 32.4859 45.2854 32.5505C45.2653 32.5826 45.2406 32.6172 45.2106 32.6525C45.1806 32.6879 45.1475 32.7214 45.1119 32.7523C45.0392 32.8156 44.9699 32.856 44.919 32.8798C44.8706 32.9024 44.845 32.907 44.8565 32.9044C44.8687 32.9016 44.9069 32.8941 44.9808 32.8878C45.0544 32.8816 45.1506 32.8775 45.2761 32.8775V28.8775ZM41.3186 32.79V33.6225H45.3186V32.79H41.3186ZM58.186 39V41H60.186V39H58.186ZM54.2485 39H52.2485V41H54.2485V39ZM54.2485 23.925V21.925H52.2485V23.925H54.2485ZM58.456 23.925H60.456V21.925H58.456V23.925ZM58.456 28.965H56.456V30.965H58.456V28.965ZM58.6585 28.965V30.965H59.9306L60.4699 29.8129L58.6585 28.965ZM58.321 37.425L60.0486 36.4173L59.4698 35.425H58.321V37.425ZM58.186 37.425V35.425H56.186V37.425H58.186ZM58.186 37H54.2485V41H58.186V37ZM56.2485 39V23.925H52.2485V39H56.2485ZM54.2485 25.925H58.456V21.925H54.2485V25.925ZM56.456 23.925V28.965H60.456V23.925H56.456ZM58.456 30.965H58.6585V26.965H58.456V30.965ZM60.4699 29.8129C60.535 29.6739 60.6418 29.5459 60.8343 29.4388C61.0372 29.326 61.3875 29.21 61.9435 29.21V25.21C59.6972 25.21 57.7465 26.1957 56.8472 28.1171L60.4699 29.8129ZM61.9435 29.21C62.8943 29.21 63.4432 29.543 63.8177 30.0441C64.2523 30.6256 64.601 31.6496 64.601 33.2175H68.601C68.601 31.1404 68.151 29.1606 67.0219 27.6496C65.8326 26.0582 64.0527 25.21 61.9435 25.21V29.21ZM64.601 33.2175C64.601 34.7733 64.2462 35.8058 63.808 36.3964C63.4241 36.9138 62.8887 37.225 62.0335 37.225V41.225C64.1034 41.225 65.8517 40.355 67.0204 38.7798C68.1347 37.2779 68.601 35.3067 68.601 33.2175H64.601ZM62.0335 37.225C60.7216 37.225 60.248 36.7592 60.0486 36.4173L56.5935 38.4327C57.654 40.2508 59.6105 41.225 62.0335 41.225V37.225ZM58.321 35.425H58.186V39.425H58.321V35.425ZM56.186 37.425V39H60.186V37.425H56.186ZM56.456 33.6225C56.456 34.585 56.6267 35.828 57.6321 36.6935C58.5587 37.4912 59.7318 37.535 60.4135 37.535V33.535C60.2851 33.535 60.1864 33.5311 60.1104 33.5249C60.034 33.5187 59.9941 33.5112 59.9806 33.5082C59.9678 33.5054 59.9935 33.5098 60.0428 33.5324C60.0948 33.5562 60.1664 33.5971 60.2418 33.6621C60.2787 33.6938 60.313 33.7284 60.3442 33.7648C60.3753 33.8012 60.4009 33.837 60.4217 33.8701C60.4633 33.9368 60.4797 33.9846 60.4834 33.9962C60.4865 34.0061 60.4788 33.9848 60.4708 33.9197C60.4628 33.8548 60.456 33.7584 60.456 33.6225H56.456ZM60.4135 37.535C61.4951 37.535 62.8385 37.31 63.6883 36.122C64.3886 35.143 64.3935 33.9159 64.3935 33.2175H60.3935C60.3935 33.3897 60.3903 33.531 60.3836 33.65C60.3769 33.7694 60.3674 33.8508 60.3584 33.9046C60.3387 34.022 60.3329 33.9375 60.435 33.7948C60.4886 33.7199 60.5566 33.6507 60.6327 33.5952C60.7065 33.5414 60.7655 33.5167 60.7888 33.5084C60.8093 33.501 60.7951 33.5088 60.7299 33.5178C60.6647 33.5267 60.5626 33.535 60.4135 33.535V37.535ZM64.3935 33.2175C64.3935 32.806 64.3818 32.3357 64.309 31.8808C64.2355 31.4217 64.0818 30.8532 63.7102 30.3208C62.8667 29.112 61.5135 28.8775 60.4135 28.8775V32.8775C60.5643 32.8775 60.667 32.886 60.7319 32.8951C60.7968 32.9042 60.8098 32.9119 60.7875 32.9037C60.7624 32.8946 60.7018 32.8686 60.627 32.8129C60.5499 32.7555 60.4824 32.6849 60.43 32.6099C60.3313 32.4684 60.3392 32.3879 60.3593 32.513C60.3684 32.5701 60.3777 32.6546 60.3842 32.777C60.3906 32.899 60.3935 33.0428 60.3935 33.2175H64.3935ZM60.4135 28.8775C59.7117 28.8775 58.546 28.9327 57.6246 29.7339C56.6311 30.5978 56.456 31.8285 56.456 32.79H60.456C60.456 32.6579 60.4627 32.5643 60.4705 32.5015C60.4783 32.4387 60.4858 32.4182 60.4827 32.4281C60.479 32.4396 60.463 32.4859 60.4228 32.5505C60.4027 32.5826 60.378 32.6172 60.348 32.6525C60.318 32.6879 60.2849 32.7214 60.2493 32.7523C60.1766 32.8156 60.1073 32.856 60.0564 32.8798C60.008 32.9024 59.9824 32.907 59.9939 32.9044C60.0061 32.9016 60.0443 32.8941 60.1182 32.8878C60.1918 32.8816 60.288 32.8775 60.4135 32.8775V28.8775ZM56.456 32.79V33.6225H60.456V32.79H56.456ZM73.5934 39V41H75.5934V39H73.5934ZM69.3859 39H67.3859V41H69.3859V39ZM69.3859 23.925V21.925H67.3859V23.925H69.3859ZM73.5934 23.925H75.5934V21.925H73.5934V23.925ZM73.5934 37H69.3859V41H73.5934V37ZM71.3859 39V23.925H67.3859V39H71.3859ZM69.3859 25.925H73.5934V21.925H69.3859V25.925ZM71.5934 23.925V39H75.5934V23.925H71.5934ZM87.8182 34.185V36.185H89.4961L89.7878 34.5326L87.8182 34.185ZM80.3257 34.185V32.185H78.2136L78.3287 34.2939L80.3257 34.185ZM83.6782 34.95V32.95H81.6782V34.95H83.6782ZM87.8632 34.95H89.8632V32.95H87.8632V34.95ZM80.3257 31.89L78.3308 31.7475L78.1777 33.89H80.3257V31.89ZM83.9707 31.89V33.89H86.0322L85.9698 31.8294L83.9707 31.89ZM82.2607 37.225C80.7729 37.225 79.8716 36.7966 79.3394 36.257C78.8029 35.7129 78.3882 34.7984 78.3882 33.33H74.3882C74.3882 35.5516 75.0309 37.5846 76.4913 39.0655C77.9561 40.5509 79.991 41.225 82.2607 41.225V37.225ZM78.3882 33.33C78.3882 31.7859 78.819 30.811 79.3843 30.2286C79.9409 29.6551 80.8723 29.21 82.3957 29.21V25.21C80.0716 25.21 77.9992 25.9124 76.514 27.4427C75.0374 28.964 74.3882 31.0491 74.3882 33.33H78.3882ZM82.3957 29.21C83.8724 29.21 84.7146 29.6334 85.1855 30.1029C85.66 30.576 85.9982 31.3355 85.9982 32.475H89.9982C89.9982 30.532 89.4026 28.659 88.0096 27.2702C86.6131 25.8779 84.6539 25.21 82.3957 25.21V29.21ZM85.9982 32.475C85.9982 32.9159 85.9145 33.4642 85.8486 33.8374L89.7878 34.5326C89.8569 34.1408 89.9982 33.2941 89.9982 32.475H85.9982ZM87.8182 32.185H80.3257V36.185H87.8182V32.185ZM78.3287 34.2939C78.3657 34.973 78.4953 36.1929 79.5557 37.0032C80.4565 37.6915 81.6074 37.715 82.3282 37.715V33.715C82.1635 33.715 82.0333 33.7111 81.9298 33.7043C81.8254 33.6975 81.7627 33.6886 81.7302 33.6827C81.6563 33.6692 81.7958 33.6808 81.9844 33.8249C82.0813 33.899 82.1653 33.9886 82.2309 34.0846C82.2941 34.1771 82.3256 34.2539 82.3391 34.2929C82.3516 34.3292 82.3495 34.3353 82.343 34.2943C82.3366 34.2536 82.3286 34.1845 82.3227 34.0761L78.3287 34.2939ZM82.3282 37.715C82.857 37.715 83.6494 37.6827 84.3422 37.304C84.7536 37.0791 85.134 36.732 85.3861 36.2447C85.6245 35.7837 85.6782 35.332 85.6782 34.995H81.6782C81.6782 34.9167 81.6897 34.6844 81.8332 34.407C81.9904 34.1031 82.2231 33.9037 82.4235 33.7942C82.5923 33.7019 82.7017 33.6924 82.6589 33.699C82.6235 33.7045 82.5241 33.715 82.3282 33.715V37.715ZM85.6782 34.995V34.95H81.6782V34.995H85.6782ZM83.6782 36.95H87.8632V32.95H83.6782V36.95ZM85.8632 34.95V35.22H89.8632V34.95H85.8632ZM85.8632 35.22C85.8632 35.7044 85.6673 36.124 85.1732 36.485C84.6341 36.8787 83.6828 37.225 82.2607 37.225V41.225C84.2811 41.225 86.131 40.7388 87.5326 39.715C88.9791 38.6585 89.8632 37.0756 89.8632 35.22H85.8632ZM82.1707 28.54C81.3963 28.54 80.4007 28.6422 79.5767 29.2662C78.6435 29.9729 78.3856 30.9796 78.3308 31.7475L82.3206 32.0325C82.3271 31.9409 82.3368 31.9772 82.2935 32.0769C82.2702 32.1306 82.2335 32.1981 82.1784 32.2694C82.1227 32.3416 82.0587 32.4042 81.9915 32.455C81.8576 32.5565 81.762 32.5735 81.7904 32.567C81.8246 32.5591 81.9377 32.54 82.1707 32.54V28.54ZM80.3257 33.89H83.9707V29.89H80.3257V33.89ZM85.9698 31.8294C85.9491 31.1461 85.7477 30.1894 84.9208 29.4477C84.1311 28.7395 83.1136 28.54 82.1707 28.54V32.54C82.6228 32.54 82.494 32.6443 82.25 32.4254C82.1258 32.3141 82.0464 32.1819 82.0046 32.0712C81.9679 31.9738 81.9707 31.9215 81.9716 31.9506L85.9698 31.8294ZM96.2119 39H94.2119V41H96.2119V39ZM96.2119 23.925V21.925H94.2119V23.925H96.2119ZM100.442 27.7275V25.7275H98.4419V27.7275H100.442ZM100.442 35.1975H98.4419V37.1975H100.442V35.1975ZM102.714 37H96.2119V41H102.714V37ZM98.2119 39V23.925H94.2119V39H98.2119ZM96.2119 25.925H102.714V21.925H96.2119V25.925ZM102.714 25.925C104.824 25.925 106.175 26.509 106.999 27.3253C107.82 28.1397 108.387 29.453 108.387 31.4625H112.387C112.387 28.702 111.592 26.2466 109.815 24.4847C108.04 22.7248 105.555 21.925 102.714 21.925V25.925ZM108.387 31.4625C108.387 33.472 107.82 34.7853 106.999 35.5997C106.175 36.416 104.824 37 102.714 37V41C105.555 41 108.04 40.2002 109.815 38.4403C111.592 36.6784 112.387 34.223 112.387 31.4625H108.387ZM102.489 25.7275H100.442V29.7275H102.489V25.7275ZM98.4419 27.7275V35.1975H102.442V27.7275H98.4419ZM100.442 37.1975H102.489V33.1975H100.442V37.1975ZM102.489 37.1975C103.743 37.1975 105.453 37.1284 106.613 35.8832C107.195 35.2588 107.48 34.5088 107.63 33.7955C107.777 33.0951 107.819 32.3034 107.819 31.4625H103.819C103.819 32.2079 103.778 32.6762 103.715 32.9734C103.655 33.2579 103.606 33.2434 103.687 33.1561C103.782 33.0543 103.847 33.0721 103.674 33.1128C103.466 33.1614 103.111 33.1975 102.489 33.1975V37.1975ZM107.819 31.4625C107.819 30.6216 107.777 29.8299 107.63 29.1295C107.48 28.4162 107.195 27.6662 106.613 27.0418C105.453 25.7966 103.743 25.7275 102.489 25.7275V29.7275C103.111 29.7275 103.466 29.7636 103.674 29.8122C103.847 29.8529 103.782 29.8707 103.687 29.7689C103.606 29.6816 103.655 29.6671 103.715 29.9516C103.778 30.2488 103.819 30.7171 103.819 31.4625H107.819ZM117.554 26.4V28.4H119.554V26.4H117.554ZM113.346 26.4H111.346V28.4H113.346V26.4ZM113.346 23.925V21.925H111.346V23.925H113.346ZM117.554 23.925H119.554V21.925H117.554V23.925ZM117.576 39V41H119.576V39H117.576ZM113.346 39H111.346V41H113.346V39ZM113.346 27.435V25.435H111.346V27.435H113.346ZM117.576 27.435H119.576V25.435H117.576V27.435ZM117.554 24.4H113.346V28.4H117.554V24.4ZM115.346 26.4V23.925H111.346V26.4H115.346ZM113.346 25.925H117.554V21.925H113.346V25.925ZM115.554 23.925V26.4H119.554V23.925H115.554ZM117.576 37H113.346V41H117.576V37ZM115.346 39V27.435H111.346V39H115.346ZM113.346 29.435H117.576V25.435H113.346V29.435ZM115.576 27.435V39H119.576V27.435H115.576ZM128.606 28.8975L126.886 29.9171L127.467 30.8975H128.606V28.8975ZM128.741 28.8975V30.8975H130.741V28.8975H128.741ZM128.741 27.435V25.435H126.741V27.435H128.741ZM132.679 27.435H134.679V25.435H132.679V27.435ZM120.866 38.1675V36.1675H118.866V38.1675H120.866ZM125.096 38.1675H127.096V36.1675H125.096V38.1675ZM128.471 36.3H130.471V34.3H128.471V36.3ZM128.291 36.3V34.3H127.179L126.592 35.2453L128.291 36.3ZM125.164 35.56C123.977 35.56 123.357 35.2081 123.013 34.833C122.643 34.4301 122.326 33.7081 122.326 32.4975H118.326C118.326 34.3694 118.82 36.1786 120.065 37.5363C121.335 38.9219 123.133 39.56 125.164 39.56V35.56ZM122.326 32.4975C122.326 31.212 122.659 30.4239 123.056 29.9793C123.422 29.5696 124.056 29.21 125.231 29.21V25.21C123.167 25.21 121.349 25.8854 120.072 27.3151C118.827 28.7099 118.326 30.5655 118.326 32.4975H122.326ZM125.231 29.21C126.268 29.21 126.632 29.4886 126.886 29.9171L130.327 27.8779C129.141 25.8764 127.209 25.21 125.231 25.21V29.21ZM128.606 30.8975H128.741V26.8975H128.606V30.8975ZM130.741 28.8975V27.435H126.741V28.8975H130.741ZM128.741 29.435H132.679V25.435H128.741V29.435ZM130.679 27.435V37.2H134.679V27.435H130.679ZM130.679 37.2C130.679 38.9598 130.248 39.7883 129.796 40.2147C129.321 40.6633 128.421 41.05 126.671 41.05V45.05C128.905 45.05 131.009 44.5705 132.542 43.1234C134.098 41.6542 134.679 39.5577 134.679 37.2H130.679ZM126.671 41.05C125.09 41.05 124.162 40.6889 123.66 40.2739C123.22 39.9105 122.866 39.3088 122.866 38.1675H118.866C118.866 40.2437 119.57 42.0833 121.111 43.3568C122.589 44.5786 124.563 45.05 126.671 45.05V41.05ZM120.866 40.1675H125.096V36.1675H120.866V40.1675ZM123.096 38.1675C123.096 38.6141 123.102 39.8701 124.213 40.6837C124.684 41.0291 125.193 41.1655 125.578 41.2309C125.971 41.2975 126.392 41.315 126.806 41.315V37.315C126.478 37.315 126.315 37.2987 126.247 37.2873C126.173 37.2746 126.347 37.2888 126.577 37.4569C126.7 37.5474 126.815 37.6645 126.908 37.8034C126.998 37.9383 127.046 38.0616 127.072 38.146C127.112 38.2826 127.096 38.337 127.096 38.1675H123.096ZM126.806 41.315C127.155 41.315 127.541 41.3042 127.91 41.2477C128.275 41.1919 128.772 41.0711 129.246 40.7485C130.377 39.978 130.471 38.7454 130.471 38.1H126.471C126.471 38.264 126.452 38.2159 126.501 38.0756C126.529 37.993 126.581 37.8776 126.672 37.7538C126.765 37.6272 126.877 37.5225 126.994 37.4428C127.211 37.2945 127.373 37.2834 127.305 37.2937C127.242 37.3033 127.099 37.315 126.806 37.315V41.315ZM130.471 38.1V36.3H126.471V38.1H130.471ZM128.471 34.3H128.291V38.3H128.471V34.3ZM126.592 35.2453C126.679 35.1047 126.442 35.56 125.164 35.56V39.56C127.261 39.56 129.093 38.8003 129.991 37.3547L126.592 35.2453ZM122.534 32.4975C122.534 33.1051 122.577 34.2675 123.45 35.1673C124.322 36.0657 125.528 36.2075 126.469 36.2075V32.2075C126.321 32.2075 126.212 32.2008 126.133 32.1922C126.054 32.1835 126.018 32.174 126.013 32.1727C126.01 32.1717 126.046 32.1814 126.106 32.2146C126.168 32.2493 126.245 32.3034 126.321 32.3814C126.397 32.4597 126.452 32.5421 126.491 32.6162C126.527 32.6872 126.542 32.739 126.546 32.7557C126.55 32.7711 126.546 32.7607 126.542 32.7135C126.537 32.6664 126.534 32.5971 126.534 32.4975H122.534ZM126.469 36.2075C127.201 36.2075 128.273 36.1576 129.149 35.5504C130.246 34.7903 130.471 33.6204 130.471 32.745H126.471C126.471 32.8855 126.452 32.8477 126.5 32.7243C126.527 32.6559 126.572 32.5694 126.642 32.4797C126.713 32.3892 126.793 32.3167 126.871 32.2627C127.019 32.1604 127.109 32.1582 127.024 32.1741C126.938 32.1899 126.77 32.2075 126.469 32.2075V36.2075ZM130.471 32.745V32.2275H126.471V32.745H130.471ZM130.471 32.2275C130.471 31.3767 130.261 30.2259 129.203 29.4569C128.334 28.8249 127.268 28.765 126.536 28.765V32.765C126.818 32.765 126.969 32.7832 127.036 32.7967C127.102 32.8098 127.002 32.8016 126.851 32.6918C126.772 32.6349 126.695 32.561 126.628 32.4722C126.562 32.3843 126.521 32.3012 126.497 32.2372C126.453 32.1219 126.471 32.0902 126.471 32.2275H130.471ZM126.536 28.765C125.567 28.765 124.372 28.9197 123.497 29.7952C122.605 30.6869 122.534 31.8408 122.534 32.4975H126.534C126.534 32.4048 126.538 32.3413 126.542 32.2999C126.546 32.2584 126.549 32.2519 126.545 32.2699C126.539 32.2893 126.524 32.34 126.487 32.4076C126.449 32.4778 126.395 32.5532 126.325 32.6236C126.255 32.6936 126.186 32.741 126.132 32.7706C126.08 32.7988 126.052 32.8059 126.061 32.8032C126.071 32.8003 126.112 32.7901 126.194 32.781C126.276 32.7719 126.388 32.765 126.536 32.765V28.765ZM146.85 34.185V36.185H148.528L148.819 34.5326L146.85 34.185ZM139.357 34.185V32.185H137.245L137.36 34.2939L139.357 34.185ZM142.71 34.95V32.95H140.71V34.95H142.71ZM146.895 34.95H148.895V32.95H146.895V34.95ZM139.357 31.89L137.363 31.7475L137.209 33.89H139.357V31.89ZM143.002 31.89V33.89H145.064L145.002 31.8294L143.002 31.89ZM141.292 37.225C139.805 37.225 138.903 36.7966 138.371 36.257C137.835 35.7129 137.42 34.7984 137.42 33.33H133.42C133.42 35.5516 134.063 37.5846 135.523 39.0655C136.988 40.5509 139.023 41.225 141.292 41.225V37.225ZM137.42 33.33C137.42 31.7859 137.851 30.811 138.416 30.2286C138.973 29.6551 139.904 29.21 141.427 29.21V25.21C139.103 25.21 137.031 25.9124 135.546 27.4427C134.069 28.964 133.42 31.0491 133.42 33.33H137.42ZM141.427 29.21C142.904 29.21 143.746 29.6334 144.217 30.1029C144.692 30.576 145.03 31.3355 145.03 32.475H149.03C149.03 30.532 148.434 28.659 147.041 27.2702C145.645 25.8779 143.686 25.21 141.427 25.21V29.21ZM145.03 32.475C145.03 32.9159 144.946 33.4642 144.88 33.8374L148.819 34.5326C148.889 34.1408 149.03 33.2941 149.03 32.475H145.03ZM146.85 32.185H139.357V36.185H146.85V32.185ZM137.36 34.2939C137.397 34.973 137.527 36.1929 138.587 37.0032C139.488 37.6915 140.639 37.715 141.36 37.715V33.715C141.195 33.715 141.065 33.7111 140.961 33.7043C140.857 33.6975 140.794 33.6886 140.762 33.6827C140.688 33.6692 140.827 33.6808 141.016 33.8249C141.113 33.899 141.197 33.9886 141.263 34.0846C141.326 34.1771 141.357 34.2539 141.371 34.2929C141.383 34.3292 141.381 34.3353 141.375 34.2943C141.368 34.2536 141.36 34.1845 141.354 34.0761L137.36 34.2939ZM141.36 37.715C141.889 37.715 142.681 37.6827 143.374 37.304C143.785 37.0791 144.166 36.732 144.418 36.2447C144.656 35.7837 144.71 35.332 144.71 34.995H140.71C140.71 34.9167 140.721 34.6844 140.865 34.407C141.022 34.1031 141.255 33.9037 141.455 33.7942C141.624 33.7019 141.733 33.6924 141.691 33.699C141.655 33.7045 141.556 33.715 141.36 33.715V37.715ZM144.71 34.995V34.95H140.71V34.995H144.71ZM142.71 36.95H146.895V32.95H142.71V36.95ZM144.895 34.95V35.22H148.895V34.95H144.895ZM144.895 35.22C144.895 35.7044 144.699 36.124 144.205 36.485C143.666 36.8787 142.715 37.225 141.292 37.225V41.225C143.313 41.225 145.163 40.7388 146.564 39.715C148.011 38.6585 148.895 37.0756 148.895 35.22H144.895ZM141.202 28.54C140.428 28.54 139.432 28.6422 138.608 29.2662C137.675 29.9729 137.417 30.9796 137.363 31.7475L141.352 32.0325C141.359 31.9409 141.369 31.9772 141.325 32.0769C141.302 32.1306 141.265 32.1981 141.21 32.2694C141.154 32.3416 141.09 32.4042 141.023 32.455C140.889 32.5565 140.794 32.5735 140.822 32.567C140.856 32.5591 140.969 32.54 141.202 32.54V28.54ZM139.357 33.89H143.002V29.89H139.357V33.89ZM145.002 31.8294C144.981 31.1461 144.779 30.1894 143.952 29.4477C143.163 28.7395 142.145 28.54 141.202 28.54V32.54C141.655 32.54 141.526 32.6443 141.282 32.4254C141.158 32.3141 141.078 32.1819 141.036 32.0712C141 31.9738 141.002 31.9215 141.003 31.9506L145.002 31.8294ZM149.677 35.0175V33.0175H147.677V35.0175H149.677ZM153.615 35.0175H155.615V33.0175H153.615V35.0175ZM155.437 34.905L155.803 32.9387L155.799 32.9379L155.437 34.905ZM153.232 34.5L152.866 36.4662L152.871 36.4671L153.232 34.5ZM160.005 31.485V33.485H162.005V31.485H160.005ZM156.045 31.485H154.045V33.485H156.045V31.485ZM154.38 31.53L153.965 33.4865L153.971 33.4878L154.38 31.53ZM156.967 32.07L157.376 30.1122L157.376 30.1122L156.967 32.07ZM155.235 37.225C153.533 37.225 152.659 36.8808 152.247 36.5611C151.927 36.3138 151.677 35.9259 151.677 35.085H147.677C147.677 36.8766 148.294 38.5587 149.797 39.7233C151.207 40.8155 153.112 41.225 155.235 41.225V37.225ZM151.677 35.085V35.0175H147.677V35.085H151.677ZM149.677 37.0175H153.615V33.0175H149.677V37.0175ZM151.615 35.0175V35.31H155.615V35.0175H151.615ZM151.615 35.31C151.615 35.5271 151.624 35.9695 151.81 36.4383C152.038 37.0096 152.452 37.4457 152.973 37.7155C153.408 37.9411 153.851 38.0156 154.16 38.0505C154.491 38.0878 154.858 38.0975 155.235 38.0975V34.0975C154.903 34.0975 154.714 34.0876 154.608 34.0756C154.48 34.0612 154.607 34.057 154.814 34.1645C154.935 34.2273 155.084 34.328 155.226 34.4821C155.369 34.6381 155.466 34.8061 155.527 34.9593C155.631 35.2214 155.615 35.4079 155.615 35.31H151.615ZM155.235 38.0975C155.546 38.0975 155.851 38.0906 156.125 38.0636C156.372 38.0393 156.765 37.9852 157.162 37.7994C157.653 37.5697 158.094 37.1645 158.333 36.5777C158.521 36.1188 158.517 35.6906 158.517 35.5575H154.517C154.517 35.6382 154.5 35.3843 154.63 35.0668C154.706 34.8787 154.826 34.6836 154.998 34.51C155.165 34.3411 155.336 34.2375 155.467 34.1762C155.69 34.072 155.836 34.0727 155.733 34.0829C155.657 34.0903 155.508 34.0975 155.235 34.0975V38.0975ZM158.517 35.5575C158.517 35.4019 158.513 35.0135 158.341 34.5844C158.139 34.081 157.793 33.7196 157.42 33.4804C157.102 33.2762 156.778 33.1698 156.559 33.1078C156.323 33.0412 156.064 32.9872 155.803 32.9387L155.072 36.8713C155.295 36.9128 155.412 36.9404 155.47 36.9567C155.544 36.9777 155.429 36.9557 155.26 36.8471C155.036 36.7035 154.779 36.449 154.628 36.0735C154.565 35.9142 154.539 35.7787 154.528 35.6934C154.517 35.6123 154.517 35.5585 154.517 35.5575H158.517ZM155.799 32.9379L153.594 32.5329L152.871 36.4671L155.076 36.8721L155.799 32.9379ZM153.599 32.5338C152.575 32.3431 152.12 32.0996 151.92 31.9176C151.814 31.8209 151.632 31.6236 151.632 30.9225H147.632C147.632 32.4714 148.103 33.8491 149.223 34.8718C150.25 35.8091 151.595 36.2294 152.866 36.4662L153.599 32.5338ZM151.632 30.9225C151.632 30.4478 151.798 30.1169 152.144 29.8509C152.546 29.5423 153.354 29.21 154.785 29.21V25.21C152.796 25.21 151.027 25.6652 149.708 26.6785C148.333 27.7344 147.632 29.2597 147.632 30.9225H151.632ZM154.785 29.21C156.014 29.21 156.878 29.4852 157.373 29.8267C157.787 30.1125 158.005 30.4699 158.005 31.0575H162.005C162.005 29.1026 161.097 27.5363 159.644 26.534C158.272 25.5873 156.526 25.21 154.785 25.21V29.21ZM158.005 31.0575V31.485H162.005V31.0575H158.005ZM160.005 29.485H156.045V33.485H160.005V29.485ZM158.045 31.485V31.2825H154.045V31.485H158.045ZM158.045 31.2825C158.045 30.7074 157.925 29.6035 156.868 28.9034C156.1 28.3949 155.177 28.3825 154.672 28.3825V32.3825C154.895 32.3825 154.991 32.394 155.014 32.3978C155.042 32.4025 154.877 32.3823 154.659 32.2385C154.397 32.0646 154.209 31.8114 154.112 31.5554C154.035 31.3522 154.045 31.2232 154.045 31.2825H158.045ZM154.672 28.3825C154.169 28.3825 153.386 28.4075 152.717 28.7951C152.291 29.0414 151.934 29.4167 151.723 29.9079C151.538 30.3401 151.525 30.7326 151.525 30.9225H155.525C155.525 30.9437 155.528 31.1843 155.4 31.4836C155.247 31.8418 154.986 32.1032 154.721 32.2568C154.505 32.3817 154.349 32.3995 154.375 32.3954C154.39 32.3931 154.475 32.3825 154.672 32.3825V28.3825ZM151.525 30.9225C151.525 31.1065 151.539 31.4462 151.684 31.8283C151.844 32.2492 152.111 32.5905 152.433 32.8457C152.956 33.2585 153.589 33.4068 153.965 33.4865L154.795 29.5735C154.656 29.5441 154.608 29.5269 154.612 29.5285C154.617 29.5304 154.649 29.5421 154.699 29.5675C154.748 29.5931 154.825 29.6376 154.914 29.708C155.116 29.8676 155.308 30.1048 155.424 30.409C155.525 30.6744 155.525 30.8848 155.525 30.9225H151.525ZM153.971 33.4878L156.559 34.0278L157.376 30.1122L154.788 29.5722L153.971 33.4878ZM156.559 34.0278C157.709 34.2678 158.11 34.5477 158.242 34.6818C158.299 34.7406 158.432 34.8806 158.432 35.49H162.432C162.432 34.2319 162.127 32.9319 161.099 31.8826C160.145 30.9086 158.814 30.4122 157.376 30.1122L156.559 34.0278ZM158.432 35.49C158.432 35.9723 158.262 36.308 157.902 36.5803C157.483 36.8968 156.658 37.225 155.235 37.225V41.225C157.21 41.225 158.983 40.777 160.313 39.7716C161.703 38.722 162.432 37.1902 162.432 35.49H158.432ZM163.808 30.9H165.808V28.9H163.808V30.9ZM162.278 30.9H160.278V32.9H162.278V30.9ZM162.278 27.435V25.435H160.278V27.435H162.278ZM163.943 27.435V29.435H165.415L165.853 28.0295L163.943 27.435ZM164.686 25.05V23.05H163.214L162.776 24.4555L164.686 25.05ZM168.038 25.05H170.038V23.05H168.038V25.05ZM168.038 27.435H166.038V29.435H168.038V27.435ZM171.098 27.435H173.098V25.435H171.098V27.435ZM171.098 30.9V32.9H173.098V30.9H171.098ZM168.038 30.9V28.9H166.038V30.9H168.038ZM171.098 35.4225H173.098V33.4225H171.098V35.4225ZM171.098 38.955L171.548 40.9038L173.098 40.546V38.955H171.098ZM168.398 37.225C167.045 37.225 166.477 36.9424 166.25 36.7428C166.079 36.593 165.808 36.2349 165.808 35.175H161.808C161.808 36.9051 162.269 38.572 163.612 39.7497C164.897 40.8776 166.625 41.225 168.398 41.225V37.225ZM165.808 35.175V30.9H161.808V35.175H165.808ZM163.808 28.9H162.278V32.9H163.808V28.9ZM164.278 30.9V27.435H160.278V30.9H164.278ZM162.278 29.435H163.943V25.435H162.278V29.435ZM165.853 28.0295L166.596 25.6445L162.776 24.4555L162.034 26.8405L165.853 28.0295ZM164.686 27.05H168.038V23.05H164.686V27.05ZM166.038 25.05V27.435H170.038V25.05H166.038ZM168.038 29.435H171.098V25.435H168.038V29.435ZM169.098 27.435V30.9H173.098V27.435H169.098ZM171.098 28.9H168.038V32.9H171.098V28.9ZM166.038 30.9V34.545H170.038V30.9H166.038ZM166.038 34.545C166.038 35.0198 166.098 36.1333 167.111 36.866C167.54 37.1757 167.988 37.2973 168.312 37.3537C168.637 37.4105 168.967 37.4225 169.253 37.4225V33.4225C169.056 33.4225 168.992 33.412 168.999 33.4132C169.004 33.4141 169.209 33.4471 169.455 33.6246C169.743 33.833 169.912 34.1115 169.99 34.3439C170.05 34.524 170.038 34.628 170.038 34.545H166.038ZM169.253 37.4225H171.098V33.4225H169.253V37.4225ZM169.098 35.4225V38.955H173.098V35.4225H169.098ZM170.649 37.0062C170.227 37.1036 169.321 37.225 168.398 37.225V41.225C169.591 41.225 170.8 41.0764 171.548 40.9038L170.649 37.0062Z" fill="white"/>
</svg>
